# xmcd CD database file
#
# Track frame offsets:
#	150
#	25890
#	51207
#	77797
#	101275
#	121552
#	145475
#	167812
#	191637
#	210855
#
# Disc length: 3056 seconds
#
# Revision: 0
# Processed by: cddbd v1.5.1PL2 Copyright (c) Steve Scherf et al.
# Submitted via: CDex 1.60beta1
#
DISCID=7c0bee0a
DTITLE=Pocket Change - Higher Altitude
DYEAR=1994
DGENRE=Jazz
TTITLE0=Cruisin' Catalina
TTITLE1=Mr. Midnight
TTITLE2=Turn On The Light
TTITLE3=Secret Lover
TTITLE4=The Right One
TTITLE5=Proper Attitude
TTITLE6=Walk In The Park
TTITLE7=Skofield Park
TTITLE8=Tropical Love
TTITLE9=Forever Longing
EXTD=YEAR: 1994
EXTT0=
EXTT1=
EXTT2=
EXTT3=
EXTT4=
EXTT5=
EXTT6=
EXTT7=
EXTT8=
EXTT9=
PLAYORDER=
